<?xml version="1.0" encoding="UTF-8" standalone="no"?>
<!-- Created with Inkscape (http://www.inkscape.org/) -->

<svg xmlns:dc="http://purl.org/dc/elements/1.1/" xmlns:cc="http://creativecommons.org/ns#" xmlns:rdf="http://www.w3.org/1999/02/22-rdf-syntax-ns#" xmlns:svg="http://www.w3.org/2000/svg" xmlns="http://www.w3.org/2000/svg" xmlns:sodipodi="http://sodipodi.sourceforge.net/DTD/sodipodi-0.dtd" xmlns:inkscape="http://www.inkscape.org/namespaces/inkscape" id="svg2985" version="1.1" inkscape:version="0.48.5 r10040" width="813.03137" height="180.47487" sodipodi:docname="ORION_Logo.svg">
  <metadata id="metadata2991">
    <rdf:RDF>
      <cc:Work rdf:about="">
        <dc:format>image/svg+xml</dc:format>
        <dc:type rdf:resource="http://purl.org/dc/dcmitype/StillImage" />
        <dc:title></dc:title>
      </cc:Work>
    </rdf:RDF>
  </metadata>
  <defs id="defs2989" />
  <sodipodi:namedview pagecolor="#ffffff" bordercolor="#666666" borderopacity="1" objecttolerance="10" gridtolerance="10" guidetolerance="10" inkscape:pageopacity="0" inkscape:pageshadow="2" inkscape:window-width="1366" inkscape:window-height="706" id="namedview2987" showgrid="false" fit-margin-top="0" fit-margin-left="0" fit-margin-right="0" fit-margin-bottom="0" inkscape:zoom="0.50111315" inkscape:cx="101.7602" inkscape:cy="108.72944" inkscape:window-x="-8" inkscape:window-y="-8" inkscape:window-maximized="1" inkscape:current-layer="svg2985" inkscape:object-paths="false" />
  <g id="g3060" transform="translate(-851.27074,-1.6875)" style="fill:black">
    <g transform="translate(854.02083,0)" id="g3054" style="fill:black">
      <path id="path2996" d="m 529.90649,1.6875 c -47.31784,0 -75.88257,20.184806 -89,51.65625 l 74.9375,0 c 8.99764,0 16.67006,0 25.5625,0 16.2087,-1.082348 19.23907,20.755846 18.0625,32.5 -3.39736,32.29072 -24.52804,45.1002 -40.09375,44.9375 -33.0105,-0.34504 -31.1875,-19.37941 -31.1875,-36.28125 0,-7.200177 1.60458,-15.401201 5.3125,-22.65625 l -58.28125,0 c -1.96042,9.189146 -2.92574,19.039223 -2.9375,29.375 -0.0429,37.69217 14.94677,80.34765 79,80.9375 47.52703,0.43766 99.29207,-22.48574 101.46875,-100.1875 C 613.86335,42.233724 603.03527,1.6875 529.90649,1.6875 z" style="fill:black;stroke:none" inkscape:connector-curvature="0" sodipodi:nodetypes="sccccssccssss" />
      <path sodipodi:nodetypes="sccccssccssss" inkscape:connector-curvature="0" style="fill:black;stroke:none" d="m 94.875,1.6875 c -47.317844,0 -75.882569,20.184806 -89,51.65625 l 74.9375,0 c 8.99764,0 16.670057,0 25.5625,0 16.2087,-1.082348 19.23907,20.755846 18.0625,32.5 -3.39736,32.29072 -24.52804,45.1002 -40.09375,44.9375 -33.0105,-0.34504 -31.1875,-19.37941 -31.1875,-36.28125 0,-7.200177 1.604584,-15.401201 5.3125,-22.65625 l -58.28125,0 c -1.9604243,9.189146 -2.9257382,19.039223 -2.9375,29.375 -0.042892,37.69217 14.946771,80.34765 79,80.9375 47.52703,0.43766 99.29207,-22.48574 101.46875,-100.1875 C 178.83186,42.233724 168.00378,1.6875 94.875,1.6875 z" id="path2995" />
      <path inkscape:connector-curvature="0" style="fill:black;stroke:none" d="m 207.90625,4.25 -8.09375,49.09375 55.65625,0 0,0.03125 25.625,0 c 0,0 5.90625,0.007 5.90625,6 0,11.404741 -11.0625,12.5625 -11.0625,12.5625 l -25.125,0 0,-0.09375 -54.0625,0 -17.75,107.71875 54.59375,0 L 243.875,120.5 c 21.15364,0.46642 32.50433,15.50061 44.15625,25.46875 20.6762,19.77112 34.6813,31.20008 54.71875,32.3125 l 59.09375,0 16.9375,-106.4375 -53.4375,0 -9.09375,56.34375 c -9.00384,3.06343 -16.45911,-1.71743 -23.78125,-7.0625 l -25.6875,-23.3125 c 0,0 33.9051,5.35812 39.84375,-45.25 C 351.75525,8.8434276 316.4375,4.25 316.4375,4.25 l -108.53125,0 z m 168.25,0.65625 -7.8125,48.4375 53.375,0 7.71875,-48.4375 -53.28125,0 z" id="path3002" />
      <path style="fill:black;stroke:none" d="m 639,4.375 -7.59375,48.84375 37.5,0 c 9.79208,2.132038 12.76443,3.1477 18.23117,5.744935 7.42179,4.914347 14.11457,10.415664 21.55008,19.755065 13.34239,13.875458 24.97744,23.5042 34.25,22.6875 l -13.25,76.90625 53.5625,0 27.03125,-173.9375 -50.90625,0 -8.46875,44.03125 C 740.84947,45.505048 732.58411,35.354385 723.84375,27.1875 712.62302,17.328532 702.29575,6.1058189 685.65625,4.375 z m 44.25,67 -54.65625,0.03125 -16.625,106.90625 53.5625,0 z" id="path3007" inkscape:connector-curvature="0" sodipodi:nodetypes="ccccccccccccccccccc" />
    </g>
  </g>
</svg>
